<svg version="1.1" xmlns="http://www.w3.org/2000/svg" width="512" height="512">
<path d="M0 0 C4.14826323 3.51399034 8.08916678 7.22344431 12 11 C12.84949219 11.79792969 13.69898438 12.59585938 14.57421875 13.41796875 C21.46686867 20.05092699 27.31119622 27.33618316 33 35 C33.40105957 35.54027832 33.80211914 36.08055664 34.21533203 36.63720703 C59.60427583 71.23137427 78.2361967 119.64530673 72.72753906 163.15185547 C69.71685337 181.71490761 60.08508757 197.97899735 51.14453125 214.2265625 C47.21896533 221.38139486 43.57123048 228.66333315 40 236 C41.20140625 236.12117188 42.4028125 236.24234375 43.640625 236.3671875 C58.33897994 238.22225692 71.69022184 247.93888068 82 258 C82.86625 258.825 83.7325 259.65 84.625 260.5 C85.40875 261.325 86.1925 262.15 87 263 C87.56847656 263.57363281 88.13695312 264.14726562 88.72265625 264.73828125 C109.25259114 286.41103558 116.87747088 315.89588741 122.0859375 344.44140625 C122.43521165 346.31151911 122.78537897 348.18146534 123.13638306 350.05125427 C123.86035567 353.91961968 124.57742836 357.78916845 125.28857422 361.65991211 C126.20033822 366.62240445 127.12421502 371.58254275 128.05245018 376.54197788 C128.94246519 381.29940541 129.82708618 386.05783036 130.7109375 390.81640625 C130.87901287 391.71930452 131.04708824 392.6222028 131.22025681 393.55246162 C131.6919656 396.09246106 132.15987416 398.63312831 132.62646484 401.17407227 C132.83674316 402.30298134 132.83674316 402.30298134 133.05126953 403.45469666 C133.57975149 406.35156541 134 409.04798758 134 412 C134.7734375 411.96519531 135.546875 411.93039062 136.34375 411.89453125 C145.07104109 411.66770809 151.88763312 412.37539252 158.6171875 418.40625 C165.5671426 426.41636774 166.22879126 434.45717873 166.3125 444.625 C166.34150391 445.77613281 166.37050781 446.92726563 166.40039062 448.11328125 C166.46648212 457.03054854 164.71468775 462.84812462 159.875 470.25 C150.48718769 479.22964656 140.30807886 478.71420278 128.09765625 478.63491821 C126.16573859 478.64068359 124.23382642 478.6486275 122.30192566 478.65855443 C117.00773872 478.67939361 111.71400345 478.66912573 106.41981506 478.65362334 C100.70465054 478.64230187 94.98956321 478.65977653 89.27441406 478.67352295 C78.08419959 478.69575128 66.89415284 478.69095589 55.70393181 478.67645974 C46.60908507 478.66516595 37.51428533 478.66363723 28.41943359 478.66907883 C26.4774932 478.67022807 26.4774932 478.67022807 24.49632168 478.67140054 C21.86627832 478.67299917 19.23623497 478.67462024 16.60619164 478.6762635 C-7.3504653 478.69011345 -31.30703167 478.67575267 -55.26367402 478.64955051 C-77.12374832 478.62582323 -98.98367697 478.6279464 -120.84375 478.65185547 C-145.41532332 478.6786405 -169.98680863 478.68914653 -194.55839539 478.67379415 C-197.17874144 478.67220141 -199.79908751 478.67062956 -202.41943359 478.66907883 C-203.7086802 478.66830745 -204.99792681 478.66753607 -206.32624149 478.66674132 C-215.40973428 478.66242494 -224.49317538 478.66970957 -233.57666016 478.68147659 C-244.64703279 478.6955023 -255.71722816 478.69169994 -266.78758049 478.66507287 C-272.43543122 478.65193587 -278.08298645 478.64678067 -283.73083496 478.66331863 C-288.90248129 478.67823312 -294.07355861 478.67000474 -299.24515343 478.64343087 C-301.11446255 478.63785234 -302.98381988 478.64067224 -304.85309792 478.65280981 C-324.68320678 478.77167882 -324.68320678 478.77167882 -332.88905334 471.27396452 C-340.19903371 463.7845076 -340.49967518 454.99357217 -340.4375 445.0625 C-340.45748047 443.93392578 -340.47746094 442.80535156 -340.49804688 441.64257812 C-340.4927262 432.49634014 -338.64768131 424.64768131 -332 418 C-326.71473729 414.15617258 -322.37635354 411.82706077 -315.75 411.9375 C-313.89375 411.9684375 -313.89375 411.9684375 -312 412 C-311.90106445 410.71424072 -311.80212891 409.42848145 -311.70019531 408.10375977 C-310.894982 400.10425099 -309.29267189 392.23238151 -307.796875 384.33984375 C-307.4738534 382.62368589 -307.15095951 380.90750399 -306.82818604 379.19129944 C-306.1520357 375.60261241 -305.47235792 372.01461387 -304.79052734 368.42700195 C-303.92681453 363.87933501 -303.07490488 359.32954731 -302.22611618 354.77907467 C-301.56282582 351.23353646 -300.89154403 347.68954349 -300.2181778 344.14590645 C-299.90132339 342.47187785 -299.58716882 340.79733544 -299.27602386 339.12223625 C-296.60405055 324.76753752 -293.45478969 310.26495477 -287.3125 296.9375 C-286.97637695 296.20055908 -286.64025391 295.46361816 -286.29394531 294.7043457 C-279.84224676 280.9584638 -271.64122469 269.76301267 -261 259 C-260.09701172 257.98873047 -260.09701172 257.98873047 -259.17578125 256.95703125 C-249.87171696 246.71552975 -235.49422191 239.32655527 -222.16015625 236.3671875 C-220.42390991 235.97829346 -220.42390991 235.97829346 -218.65258789 235.58154297 C-217.77723389 235.38963379 -216.90187988 235.19772461 -216 235 C-216.22470978 234.49317688 -216.44941956 233.98635376 -216.68093872 233.46417236 C-219.06427462 228.08226194 -221.43058747 222.69308118 -223.78808594 217.29980469 C-224.66446594 215.30058282 -225.54486017 213.30311476 -226.4296875 211.30761719 C-245.2304571 168.87769853 -246.2637895 129.15180948 -229.96386719 85.20654297 C-215.14488008 47.07244004 -215.14488008 47.07244004 -205 42 C-203.906875 42.09152344 -202.81375 42.18304688 -201.6875 42.27734375 C-197.87868934 42.35731214 -197.87868934 42.35731214 -195.3125 39.69140625 C-190.81333463 34.16211016 -190.81333463 34.16211016 -188.93359375 27.55078125 C-189.26843627 26.10498834 -189.61084408 24.66092588 -189.9609375 23.21875 C-190.03522875 18.99900681 -186.97832018 16.34181022 -184.30078125 13.3359375 C-181.01702714 10.00200718 -177.6195884 6.96262995 -174 4 C-173.12730469 3.24074219 -172.25460938 2.48148438 -171.35546875 1.69921875 C-118.38223612 -43.8988918 -53.92358851 -43.93458121 0 0 Z " fill="#010101" transform="translate(343,34)"/>
<path d="M0 0 C0.86314741 -0.00521549 1.72629481 -0.01043099 2.6155982 -0.01580453 C4.04640966 -0.00911236 4.04640966 -0.00911236 5.5061264 -0.002285 C6.51506155 -0.00540498 7.52399671 -0.00852497 8.56350565 -0.01173949 C11.96610909 -0.01975789 15.36853608 -0.01338091 18.77114105 -0.00710678 C21.20165868 -0.00981494 23.63217549 -0.01337488 26.06269073 -0.0177269 C31.99207474 -0.02592275 37.92141241 -0.02469155 43.85079515 -0.01890162 C48.66814552 -0.01439162 53.48548169 -0.01376934 58.30283356 -0.01594925 C58.98749936 -0.01625572 59.67216516 -0.01656218 60.37757841 -0.01687793 C61.76830288 -0.01751736 63.15902735 -0.01816579 64.54975182 -0.01882312 C77.60191677 -0.02453126 90.65405366 -0.01796094 103.70621401 -0.00722238 C114.91455661 0.00171357 126.12285779 0.00016166 137.33119965 -0.00905991 C150.33548143 -0.019754 163.33973861 -0.02398189 176.34402418 -0.01783538 C177.72973855 -0.01719826 179.11545292 -0.01656951 180.5011673 -0.01594925 C181.18303113 -0.0156407 181.86489497 -0.01533215 182.56742135 -0.01501425 C187.38104619 -0.01328472 192.19465546 -0.01620794 197.00827789 -0.02090836 C203.48261269 -0.02709123 209.95688749 -0.02271262 216.43121529 -0.01111984 C218.81373527 -0.00846517 221.19626181 -0.009252 223.57877922 -0.01364517 C226.81856827 -0.01907031 230.05810189 -0.01230352 233.29787445 -0.002285 C234.25174876 -0.00674645 235.20562306 -0.01120789 236.18840265 -0.01580453 C237.05155006 -0.01058903 237.91469747 -0.00537354 238.80400085 0 C239.55248464 0.0003247 240.30096843 0.00064941 241.07213354 0.00098395 C242.90200043 0.25168228 242.90200043 0.25168228 244.90200043 2.25168228 C244.91934054 4.84466667 244.81765077 7.3047035 244.6085434 9.88132095 C244.52789044 11.02393654 244.52789044 11.02393654 244.44560814 12.18963528 C244.27593601 14.54468518 244.09078314 16.89809449 243.90200043 19.25168228 C243.79878087 20.59189858 243.69560842 21.93211851 243.59249115 23.27234268 C243.27620171 27.2421114 242.93969595 31.20988764 242.59731293 35.17746353 C242.4712056 36.65874416 242.34530591 38.14004248 242.21959686 39.62135696 C241.89059797 43.49223532 241.55904506 47.36289035 241.22682953 51.2334938 C240.89972192 55.04868351 240.57468844 58.86404963 240.24965668 62.67941666 C240.12008022 64.2003213 239.99050258 65.72122584 239.86092377 67.24213028 C239.79677025 67.99518322 239.73261673 68.74823616 239.66651917 69.52410889 C239.4729644 71.79482071 239.27909285 74.06550531 239.08516693 76.33618546 C237.66532009 92.9725569 236.2820759 109.61197112 234.90200043 126.25168228 C233.6330191 126.25532791 232.36403778 126.25897354 231.05660248 126.26272964 C219.10818431 126.2996419 207.16002477 126.35737333 195.21180344 126.43558502 C189.06881122 126.4751246 182.92596374 126.50728136 176.7828598 126.52267838 C170.85640639 126.53780213 164.93035075 126.57217175 159.0040741 126.6199913 C156.74105279 126.63484929 154.47797471 126.64272581 152.21490479 126.64356613 C149.04929753 126.6459242 145.88479995 126.67291116 142.71938324 126.70578384 C141.77998901 126.70075348 140.84059479 126.69572311 139.87273407 126.69054031 C134.7528634 126.74231753 134.7528634 126.74231753 130.31575775 129.09439468 C128.40002523 132.01765877 128.39166986 133.82517707 128.90200043 137.25168228 C130.14380599 138.97991689 130.14380599 138.97991689 131.90200043 140.25168228 C134.80095957 140.54359082 137.48486244 140.65016325 140.38462067 140.62349319 C141.2609143 140.62731776 142.13720794 140.63114232 143.04005593 140.63508278 C145.98809401 140.64439802 148.93566614 140.63235733 151.88368988 140.62057877 C153.99259893 140.62304564 156.10150677 140.6268829 158.21041107 140.63199234 C162.7579563 140.64034377 167.30537638 140.63951132 171.85292244 140.63180733 C179.04212642 140.62024878 186.23116856 140.63236675 193.42035675 140.64842606 C211.27990996 140.68466342 229.13945972 140.69084966 246.99904633 140.68832779 C260.87188543 140.68661768 274.7445929 140.69371084 288.6173951 140.72830635 C295.76526972 140.74512345 302.91282375 140.74328529 310.0606972 140.72748363 C314.50783279 140.72169295 318.95481589 140.73241587 323.40192413 140.74773026 C325.46509159 140.75146152 327.52828451 140.74833395 329.59142876 140.73785973 C332.40748211 140.72451538 335.22242095 140.73567614 338.03842926 140.75288773 C338.85545974 140.74308095 339.67249021 140.73327417 340.51427919 140.72317022 C346.78434113 140.8024519 350.41074401 142.76042587 354.90200043 147.25168228 C355.16078949 149.52658463 355.16078949 149.52658463 355.16762543 152.33761978 C355.17020355 153.35082291 355.17278168 154.36402603 355.17543793 155.40793228 C355.16770355 156.47011978 355.15996918 157.53230728 355.15200043 158.62668228 C355.1597348 159.68113541 355.16746918 160.73558853 355.17543793 161.82199478 C355.17157074 163.34566666 355.17157074 163.34566666 355.16762543 164.90011978 C355.16536957 165.83001724 355.16311371 166.7599147 355.16078949 167.71799088 C354.87501099 170.51592417 354.56695097 171.98047907 352.90200043 174.25168228 C348.25913814 177.10414208 344.34186001 177.68128163 339.00930691 177.6292057 C338.2289183 177.63356603 337.4485297 177.63792635 336.64449295 177.6424188 C334.02572005 177.65337979 331.40747311 177.6429492 328.78870392 177.63263321 C326.89380294 177.63608943 324.99890397 177.64085375 323.10400921 177.64681494 C317.89384142 177.65935932 312.6838381 177.65313891 307.47366965 177.64385629 C301.85602864 177.63708027 296.2384163 177.6475398 290.62078094 177.65579605 C279.61487987 177.66915078 268.60904009 177.66624796 257.60313659 177.65755813 C248.66071541 177.65078918 239.71831145 177.64986144 230.77588844 177.65312958 C228.86843706 177.65381913 228.86843706 177.65381913 226.92245131 177.65452261 C224.33934616 177.65548176 221.75624102 177.6564544 219.17313588 177.65744038 C195.63074079 177.66575519 172.0883869 177.65712567 148.54599917 177.64141259 C127.04916982 177.62717392 105.55239377 177.62845096 84.05556488 177.64279556 C59.90854931 177.65885472 35.76157012 177.66517697 11.61454731 177.65595877 C9.04113043 177.6550031 6.46771354 177.65405999 3.89429665 177.65312958 C2.62804352 177.65266675 1.36179039 177.65220392 0.05716596 177.65172707 C-8.87783405 177.64913382 -17.81281518 177.65351536 -26.74781227 177.66056824 C-37.63173433 177.66897047 -48.51559145 177.66672995 -59.39950604 177.65072601 C-64.9555096 177.64282634 -70.51140478 177.63978056 -76.06740761 177.64967346 C-81.14938404 177.65858567 -86.23115122 177.65374502 -91.31310856 177.63774081 C-93.15553416 177.63437825 -94.99797729 177.63611995 -96.8403917 177.64336817 C-99.33756441 177.6524418 -101.8340128 177.64318416 -104.33114719 177.6292057 C-105.4134638 177.63974095 -105.4134638 177.63974095 -106.51764539 177.65048903 C-110.87944615 177.60142118 -113.61354969 176.90096277 -117.09799957 174.25168228 C-120.22760855 169.71693061 -119.58466623 164.17842192 -119.66049957 158.87668228 C-119.71012848 157.84801041 -119.75975739 156.81933853 -119.8108902 155.75949478 C-119.83119293 154.25902603 -119.83119293 154.25902603 -119.85190582 152.72824478 C-119.87583405 151.82155045 -119.89976227 150.91485611 -119.92441559 149.98068619 C-118.64302621 145.74926212 -115.80523594 143.54294263 -112.09799957 141.25168228 C-109.05658741 140.43964579 -106.17299727 140.45275599 -103.03824615 140.51237869 C-101.70325345 140.50173859 -101.70325345 140.50173859 -100.34129119 140.49088353 C-97.37052283 140.47436483 -94.40168547 140.50042401 -91.43100739 140.52634048 C-89.296933 140.52308053 -87.16286127 140.5171432 -85.02880096 140.50873184 C-80.43969656 140.49633486 -75.85114153 140.50275354 -71.2620697 140.5238018 C-64.01028794 140.55686071 -56.75893688 140.54756846 -49.50711823 140.53248978 C-38.04315782 140.51361433 -26.57941894 140.5226351 -15.11546874 140.54381102 C5.43111748 140.58152144 25.97767381 140.58572339 46.52427602 140.55895871 C53.73820985 140.55085019 60.95187696 140.55951209 68.16577959 140.58152163 C72.6444088 140.59257561 77.12297924 140.59162938 81.60161781 140.58764648 C83.68379643 140.58843549 85.76598031 140.59443335 87.84812737 140.60592461 C90.68233684 140.62094266 93.51595671 140.61777488 96.35018158 140.61003494 C97.59641521 140.62344538 97.59641521 140.62344538 98.86782527 140.63712674 C103.00899789 140.71148969 103.00899789 140.71148969 106.60831666 138.94743222 C108.77224163 136.11097734 108.32944935 133.67127369 107.90200043 130.25168228 C106.1333557 128.14384515 104.64611746 127.35650184 101.9211731 126.97265434 C99.33536014 126.84007136 96.76566467 126.81531393 94.17641449 126.81930923 C93.19071976 126.80911758 92.20502502 126.79892593 91.18946075 126.78842545 C87.93212493 126.75823664 84.67508291 126.74902035 81.41762543 126.73996353 C79.15888741 126.72312124 76.90015879 126.70497162 74.64144135 126.68556595 C68.69685045 126.63801114 62.75229765 126.6082371 56.80757904 126.58212662 C50.74132003 126.55234884 44.67519237 126.50580894 38.60903168 126.46066666 C26.70675656 126.3745711 14.80445445 126.30725352 2.90200043 126.25168228 C2.84824249 125.5461673 2.79448456 124.84065231 2.7390976 124.11375809 C2.10206059 115.7571816 1.46297701 107.40076265 0.8228035 99.04442596 C0.65266828 96.82290268 0.48272391 94.60136486 0.31279755 92.37982559 C-0.86099775 77.0423165 -2.04498407 61.70612214 -3.32065582 46.37668228 C-3.41428406 45.24890869 -3.50791229 44.1211351 -3.60437775 42.95918655 C-4.0398618 37.72550075 -4.48065479 32.49233363 -4.92905426 27.25973892 C-5.08573511 25.39378097 -5.24231666 23.52781467 -5.39878082 21.66183853 C-5.47040939 20.84791641 -5.54203796 20.03399429 -5.6158371 19.19540787 C-5.95885733 15.06138787 -6.18181885 10.93634356 -6.26670074 6.78854752 C-6.28359451 5.9685376 -6.30048828 5.14852768 -6.31789398 4.30366898 C-5.88023633 0.21958301 -3.54190651 0.00153654 0 0 Z " fill="#F9F7F8" transform="translate(138.0979995727539,319.74831771850586)"/>
<path d="M0 0 C38.17038563 29.90115004 64.50654171 73.98635987 72 122 C72.18432763 124.73353946 72.16761655 127.26226308 72 130 C69.74621698 127.15484534 68.06825159 124.29966361 66.4375 121.0625 C49.88513658 90.37507376 18.40280834 73.7075603 -14 64 C-18.81636505 62.63899026 -23.65039173 61.36200612 -28.5 60.125 C-29.66958252 59.8261792 -30.83916504 59.5273584 -32.04418945 59.21948242 C-44.56033924 56.16160509 -56.80475911 55.76190187 -69.625 55.75 C-70.38078339 55.74899292 -71.13656677 55.74798584 -71.91525269 55.74694824 C-82.93708569 55.75687874 -93.26400418 56.33331717 -104 59 C-105.33482801 59.27497325 -106.67082212 59.54433475 -108.0078125 59.80859375 C-131.66789413 64.65808924 -156.64612046 74.39112807 -176 89 C-176.93972656 89.69609375 -177.87945312 90.3921875 -178.84765625 91.109375 C-192.0164854 101.3256331 -200.95579681 115.03106823 -208 130 C-208.33 130 -208.66 130 -209 130 C-210.41829407 103.52517732 -197.26942351 74.0824632 -183.4543457 52.21484375 C-180.85064349 47.99599829 -179.20113496 45.11705446 -180 40 C-180.40605469 39.18144531 -180.81210938 38.36289063 -181.23046875 37.51953125 C-182 35 -182 35 -180.61328125 31.88671875 C-178.18861529 28.51523925 -176.10740078 25.75820496 -173 23 C-170.47265625 22.75 -170.47265625 22.75 -167.875 23.1875 C-164.81871296 23.55255651 -162.86922854 23.62614777 -160.3203125 21.79003906 C-157.73499895 19.39862403 -155.36195459 16.83656775 -152.96582031 14.2578125 C-110.17948391 -31.67804391 -49.97903733 -37.50429096 0 0 Z " fill="#908190" transform="translate(327,41)"/>
<path d="M0 0 C0.33 0.66 0.66 1.32 1 2 C2.26457031 1.94199219 3.52914062 1.88398438 4.83203125 1.82421875 C6.49215065 1.77732272 8.15230989 1.73182239 9.8125 1.6875 C11.06256836 1.6246582 11.06256836 1.6246582 12.33789062 1.56054688 C14.65969628 1.51392427 16.726759 1.51891208 19 2 C21.01171875 4.45703125 21.01171875 4.45703125 22 7 C23.81343388 8.81343388 26.313976 8.126888 28.72832841 8.13660604 C29.55787673 8.13485567 30.38742505 8.13310529 31.24211121 8.13130188 C32.55398839 8.13447545 32.55398839 8.13447545 33.89236814 8.13771313 C36.84647062 8.14374286 39.80053075 8.14271087 42.75463867 8.1418457 C44.86325148 8.14487527 46.97186362 8.14839616 49.08047485 8.15237427 C53.63347128 8.16027988 58.18645982 8.16541445 62.7394619 8.16866493 C69.93687225 8.17456072 77.13423277 8.19108786 84.33161926 8.21000671 C86.79293725 8.21634462 89.25425526 8.22267023 91.71557331 8.22898388 C92.94847147 8.23214969 94.18136962 8.2353155 95.45162833 8.23857725 C112.21587156 8.28069664 128.98009216 8.31362812 145.74438477 8.32592773 C157.04100252 8.33430117 168.33749761 8.35676743 179.63405401 8.3952834 C185.61577273 8.41507224 191.59730795 8.42743933 197.57906151 8.42244911 C203.2072926 8.41781133 208.83517596 8.43156081 214.46333694 8.45946121 C216.52971696 8.46638824 218.59613282 8.46648337 220.66251183 8.45926094 C223.48308029 8.45039795 226.30249583 8.46602531 229.12297058 8.48774719 C229.9413653 8.47930466 230.75976001 8.47086212 231.60295457 8.46216375 C237.87475951 8.55151379 241.50676561 10.50676561 246 15 C246.25878906 17.27490234 246.25878906 17.27490234 246.265625 20.0859375 C246.26820313 21.09914063 246.27078125 22.11234375 246.2734375 23.15625 C246.26570313 24.2184375 246.25796875 25.280625 246.25 26.375 C246.25773437 27.42945313 246.26546875 28.48390625 246.2734375 29.5703125 C246.26957031 31.09398437 246.26957031 31.09398437 246.265625 32.6484375 C246.26336914 33.57833496 246.26111328 34.50823242 246.25878906 35.46630859 C245.97301056 38.26424189 245.66495055 39.72879679 244 42 C239.35713771 44.8524598 235.43985958 45.42959935 230.10730648 45.37752342 C229.32691788 45.38188374 228.54652927 45.38624407 227.74249253 45.39073652 C225.12371962 45.4016975 222.50547269 45.39126692 219.88670349 45.38095093 C217.99180251 45.38440715 216.09690354 45.38917147 214.20200878 45.39513266 C208.99184099 45.40767704 203.78183767 45.40145663 198.57166922 45.39217401 C192.95402821 45.38539799 187.33641587 45.39585752 181.71878052 45.40411377 C170.71287944 45.4174685 159.70703967 45.41456568 148.70113616 45.40587585 C139.75871499 45.3991069 130.81631102 45.39817916 121.87388802 45.4014473 C119.96643663 45.40213684 119.96643663 45.40213684 118.02045088 45.40284032 C115.43734573 45.40379948 112.85424059 45.40477212 110.27113546 45.4057581 C86.72874036 45.41407291 63.18638647 45.40544339 39.64399875 45.38973031 C18.14716939 45.37549164 -3.34960666 45.37676868 -24.84643555 45.39111328 C-48.99345112 45.40717243 -73.14043031 45.41349468 -97.28745311 45.40427649 C-99.86087 45.40332082 -102.43428689 45.40237771 -105.00770378 45.4014473 C-106.27395691 45.40098447 -107.54021003 45.40052164 -108.84483447 45.40004479 C-117.77983448 45.39745154 -126.71481561 45.40183308 -135.6498127 45.40888596 C-146.53373475 45.41728819 -157.41759188 45.41504767 -168.30150647 45.39904372 C-173.85751002 45.39114406 -179.41340521 45.38809828 -184.96940804 45.39799118 C-190.05138447 45.40690339 -195.13315165 45.40206274 -200.21510898 45.38605852 C-202.05753459 45.38269597 -203.89997772 45.38443767 -205.74239213 45.39168589 C-208.23956483 45.40075952 -210.73601323 45.39150188 -213.23314762 45.37752342 C-214.31546423 45.38805867 -214.31546423 45.38805867 -215.41964582 45.39880675 C-219.78144658 45.34973889 -222.51555012 44.64928049 -226 42 C-229.12960897 37.46524833 -228.48666666 31.92673964 -228.5625 26.625 C-228.61212891 25.59632813 -228.66175781 24.56765625 -228.71289062 23.5078125 C-228.72642578 22.5075 -228.73996094 21.5071875 -228.75390625 20.4765625 C-228.77783447 19.56986816 -228.8017627 18.66317383 -228.82641602 17.72900391 C-227.54502664 13.49757984 -224.70723636 11.29126034 -221 9 C-217.95858784 8.18796351 -215.07499769 8.20107371 -211.94024658 8.26069641 C-210.60525387 8.25005631 -210.60525387 8.25005631 -209.24329162 8.23920125 C-206.27252326 8.22268255 -203.3036859 8.24874173 -200.33300781 8.2746582 C-198.19893342 8.27139825 -196.06486169 8.26546091 -193.93080139 8.25704956 C-189.34169699 8.24465258 -184.75314196 8.25107126 -180.16407013 8.27211952 C-172.91228837 8.30517842 -165.66093731 8.29588617 -158.40911865 8.2808075 C-146.94515824 8.26193205 -135.48141937 8.27095281 -124.01746917 8.29212874 C-103.47088295 8.32983916 -82.92432662 8.33404111 -62.37772441 8.30727643 C-55.16379058 8.29916791 -47.95012346 8.30782981 -40.73622084 8.32983935 C-36.25759163 8.34089333 -31.77902119 8.3399471 -27.30038261 8.3359642 C-25.218204 8.33675321 -23.13602012 8.34275107 -21.05387306 8.35424232 C-18.21966358 8.36926037 -15.38604372 8.3660926 -12.55181885 8.35835266 C-11.30558522 8.3717631 -11.30558522 8.3717631 -10.03417516 8.38544446 C-5.87921376 8.47182608 -5.87921376 8.47182608 -2.30930877 6.64496869 C-0.61790194 4.51994567 -0.35921803 2.65821342 0 0 Z " fill="#E4A360" transform="translate(247,452)"/>
<path d="M0 0 C2.04061541 7.17859349 3.37369729 13.52605426 3 21 C1.824375 21.226875 0.64875 21.45375 -0.5625 21.6875 C-6.00320617 23.05732319 -10.13258759 25.58941848 -13.57788086 30.03683472 C-15.52327774 34.09031543 -15.39647145 37.48518125 -15.296875 41.92236328 C-15.28622009 42.80045214 -15.27556519 43.67854099 -15.2645874 44.5832386 C-15.07266403 54.8390658 -14.17537104 65.03163701 -13.25 75.2421875 C-13.06971554 77.30990716 -12.89037358 79.37770919 -12.71191406 81.44558716 C-12.24556861 86.82958222 -11.77011946 92.2127253 -11.29150391 97.59564209 C-10.52422573 106.22736091 -9.76524046 114.85976901 -9.01745605 123.49319839 C-8.75680225 126.4768242 -8.48857703 129.45969975 -8.21972656 132.44259644 C-8.0576211 134.29747762 -7.89582168 136.15238558 -7.734375 138.00732422 C-7.65956909 138.81388962 -7.58476318 139.62045502 -7.50769043 140.45146179 C-6.88929247 147.7062117 -7 154.62527117 -7 162 C-33.07 162 -59.14 162 -86 162 C-84.87484015 150.74840146 -84.87484015 150.74840146 -84.15551758 146.84277344 C-83.99455093 145.95830536 -83.83358429 145.07383728 -83.66773987 144.16256714 C-83.49508102 143.23751373 -83.32242218 142.31246033 -83.14453125 141.359375 C-82.96240585 140.36640411 -82.78028046 139.37343323 -82.59263611 138.35037231 C-82.00393046 135.1493643 -81.4088173 131.94959818 -80.8125 128.75 C-80.60991577 127.6581842 -80.40733154 126.56636841 -80.1986084 125.44146729 C-78.98991124 118.9283839 -77.77201298 112.41708 -76.54669189 105.90710449 C-76.05239355 103.27860945 -75.56068023 100.64964736 -75.06982422 98.02050781 C-69.53402667 68.46008956 -61.63915425 42.01224312 -40 20 C-39.31421875 19.30132812 -38.6284375 18.60265625 -37.921875 17.8828125 C-28.14533062 8.57699063 -13.82168086 0 0 0 Z " fill="#8F818F" transform="translate(133,284)"/>
<path d="M0 0 C19.8193667 1.80176061 35.2063658 13.70336171 47.75 28.3125 C57.8586176 41.19460113 65.31244375 56.68355662 69.42578125 72.51171875 C69.63734863 73.32248871 69.84891602 74.13325867 70.06689453 74.96859741 C72.75235273 85.57993577 74.59597016 96.35218052 76.5 107.125 C77.27646231 111.45635927 78.05799746 115.78679727 78.83984375 120.1171875 C79.02735703 121.15955566 79.2148703 122.20192383 79.4080658 123.27587891 C81.03144253 132.26608824 82.78461148 141.22350202 84.6796875 150.16064453 C84.85886719 151.02028809 85.03804688 151.87993164 85.22265625 152.765625 C85.37484619 153.47493164 85.52703613 154.18423828 85.68383789 154.91503906 C86 157 86 157 86 162 C61.91 162 37.82 162 13 162 C13 147.37535109 13 147.37535109 13.61083984 140.72900391 C13.67590225 140.00327179 13.74096466 139.27753967 13.80799866 138.52981567 C14.020162 136.17819458 14.24047475 133.82741868 14.4609375 131.4765625 C14.61361195 129.80151048 14.76575088 128.12640958 14.91738892 126.45126343 C15.31591981 122.06374777 15.72132279 117.67689504 16.12835693 113.29016113 C16.53480156 108.89822575 16.93523716 104.50574381 17.3359375 100.11328125 C17.80107922 95.01868752 18.2665423 89.9241247 18.73416138 84.82975769 C19.56940039 75.73003526 20.40184798 66.6301343 21.203125 57.52734375 C21.28146576 56.64990509 21.35980652 55.77246643 21.44052124 54.86843872 C22.98221746 42.33864834 22.98221746 42.33864834 20.3125 30.375 C14.58441062 24.4920974 9.92055253 21.91783863 1.6875 21.375 C0.61886719 21.30023438 -0.44976562 21.22546875 -1.55078125 21.1484375 C-2.35902344 21.09945313 -3.16726563 21.05046875 -4 21 C-4.5939348 13.42733125 -2.43286286 7.12481267 0 0 Z " fill="#8F818F" transform="translate(375,284)"/>
<path d="M0 0 C0.01213028 0.97480316 0.01213028 0.97480316 0.02450562 1.96929932 C0.11111557 8.78375551 0.21063798 15.59793949 0.31738281 22.41210938 C0.35547103 24.94917194 0.39035758 27.4862848 0.421875 30.0234375 C0.46796612 33.68768188 0.52588511 37.35158592 0.5859375 41.015625 C0.59748871 42.13487366 0.60903992 43.25412231 0.62094116 44.4072876 C1.113598 71.19054027 13.25855499 94.14445183 32 113 C32.74902588 113.42555176 33.49805176 113.85110352 34.26977539 114.28955078 C37.37534338 116.29919779 39.02803475 117.83508908 41 121 C42.55030916 128.31371442 41.83532198 136.09383549 41.5625 143.5 C41.2840625 154.1425 41.2840625 154.1425 41 165 C23.51 165 6.02 165 -12 165 C-12.66 159.72 -13.32 154.44 -14 149 C-14.63404813 145.84450465 -15.27608404 142.83518071 -16.125 139.75 C-16.33962891 138.95956299 -16.55425781 138.16912598 -16.77539062 137.35473633 C-19.98074361 126.03667066 -24.5378719 115.19778224 -29.53518677 104.563797 C-30.75888364 101.95105273 -31.95752227 99.32706491 -33.15625 96.70278931 C-33.74972503 95.42396813 -34.35592061 94.1509558 -34.97607422 92.88485718 C-41.45678459 79.65230196 -40.80687451 68.19802423 -36.75 54.25 C-36.52747559 53.45198975 -36.30495117 52.65397949 -36.07568359 51.83178711 C-30.18957226 31.32580305 -19.34642908 14.62202424 -3 1 C-1 0 -1 0 0 0 Z " fill="#C4CED8" transform="translate(163,140)"/>
<path d="M0 0 C15.25316086 5.6662834 25.62062179 22.7599737 32.2109375 36.8359375 C37.05977319 47.75224522 44.44430486 65.12427222 40.31762695 76.95654297 C39.29321447 79.08814874 38.1721608 81.13337355 37 83.1875 C36.56574707 83.98357666 36.13149414 84.77965332 35.68408203 85.59985352 C33.5200792 89.54965876 31.30078457 93.4677601 29.08496094 97.38867188 C16.80461304 119.1234874 5.52667375 139.73326247 3 165 C-11.85 165 -26.7 165 -42 165 C-42.20625 157.925625 -42.4125 150.85125 -42.625 143.5625 C-42.71604004 141.34732666 -42.80708008 139.13215332 -42.90087891 136.84985352 C-43.23390692 122.89981826 -43.23390692 122.89981826 -39.85253906 117.69360352 C-37.34090801 115.43409911 -34.89822123 113.71861415 -32 112 C-14.67358883 97.11075288 -3.66073277 73.31089216 -1 51 C-0.7195834 46.85698859 -0.63167666 42.72581497 -0.5859375 38.57421875 C-0.56657135 37.46061478 -0.5472052 36.3470108 -0.5272522 35.19966125 C-0.46819662 31.6956817 -0.42137123 28.19166795 -0.375 24.6875 C-0.3367519 22.28970041 -0.29769638 19.89191356 -0.2578125 17.49414062 C-0.16255754 11.66287476 -0.07730129 5.83153006 0 0 Z " fill="#C5CFD9" transform="translate(353,140)"/>
<path d="M0 0 C52.8 0 105.6 0 160 0 C160 28 160 28 158 37 C144.97191015 45.01728606 116.20608793 41.07639493 101.78125 38.046875 C95.48265852 36.30305008 89.92282307 33.99303175 86.30859375 28.3671875 C85.66083984 27.19542969 85.66083984 27.19542969 85 26 C83.83622098 24.61857444 83.83622098 24.61857444 80.625 24.75 C77.15217215 24.67514177 77.15217215 24.67514177 75.3125 26.1875 C74.288365 27.60178167 73.26836741 29.01905968 72.25 30.4375 C67.71849985 35.59837517 62.0860629 37.68801689 55.4375 38.75 C54.31855347 38.93212036 54.31855347 38.93212036 53.17700195 39.11791992 C45.37312092 40.21229621 37.55680248 40.28731668 29.6875 40.3125 C28.43702881 40.31797852 27.18655762 40.32345703 25.89819336 40.32910156 C17.7700381 40.26687029 9.99376716 39.46492303 2 38 C0 29 0 29 0 0 Z " fill="#FACEA0" transform="translate(178,164)"/>
<path d="M0 0 C2.35317996 0.97707227 4.72045544 1.91992046 7.08618164 2.86621094 C7.08618164 9.13621094 7.08618164 15.40621094 7.08618164 21.86621094 C-45.71381836 21.86621094 -98.51381836 21.86621094 -152.91381836 21.86621094 C-152.91381836 15.92621094 -152.91381836 9.98621094 -152.91381836 3.86621094 C-103.7085821 -22.3339798 -50.6790612 -21.21421326 0 0 Z " fill="#908190" transform="translate(330.913818359375,127.1337890625)"/>
<path d="M0 0 C3.49077942 0.51657274 6.09431942 2.13948206 9.125 3.875 C14.12768025 6.38817426 18.68550641 7.8013435 24.203125 8.68359375 C25.367798 8.872882 25.367798 8.872882 26.55599976 9.06599426 C35.57158128 10.40480874 44.53377006 10.33101723 53.625 10.1875 C55.32550868 10.17239231 57.02603069 10.1587149 58.7265625 10.14648438 C62.81804916 10.1140373 66.90886839 10.06260953 71 10 C62.86698797 31.13439184 41.79613799 46.67276632 22 56 C8.83402397 61.57332728 -3.34610743 62.77487003 -17 58 C-39.88854702 48.47039104 -57.62174858 32.29981029 -70 11 C-66.70230309 10.00169098 -63.77219519 9.91064901 -60.3359375 9.97265625 C-58.66519165 9.99320068 -58.66519165 9.99320068 -56.96069336 10.01416016 C-55.77741455 10.0301123 -54.59413574 10.04606445 -53.375 10.0625 C-42.41528737 10.13687234 -31.83133247 9.64250323 -21 8 C-20.02160156 7.86722656 -19.04320312 7.73445312 -18.03515625 7.59765625 C-11.95561375 6.61406309 -4.47088542 4.47088542 0 0 Z " fill="#908190" transform="translate(257,208)"/>
<path d="M0 0 C6.01093764 4.65489097 11.33310474 12.09688104 12.80078125 19.58203125 C13.80273221 30.47824793 11.32149793 38.20378441 4.5546875 46.734375 C-2.24071409 53.89300518 -12.95985982 59.02267514 -22.828125 59.78515625 C-35.57410003 59.9888203 -47.9253655 56.73554574 -57.51171875 47.95703125 C-64.47793266 40.38321653 -67.16520578 32.33554868 -66.73828125 22.078125 C-65.33193209 12.95723734 -60.73181865 6.02231495 -53.63671875 0.26953125 C-37.31978253 -11.02680921 -16.52550556 -10.65498848 0 0 Z " fill="#040303" transform="translate(284.19921875,357.41796875)"/>
<path d="M0 0 C38.17038563 29.90115004 64.50654171 73.98635987 72 122 C72.18432763 124.73353946 72.16761655 127.26226308 72 130 C69.74621698 127.15484534 68.06825159 124.29966361 66.4375 121.0625 C60.76185102 110.54007157 52.18812761 98.13703823 41.9453125 91.7109375 C39.1351591 89.2393568 38.09831795 86.15042158 36.75 82.75 C27.1545583 59.79199791 13.13199258 39.94662624 -4 22 C-4.81210937 21.13503906 -5.62421875 20.27007812 -6.4609375 19.37890625 C-27.73639764 -2.68835904 -58.24346147 -19.8482699 -89 -23 C-89 -23.33 -89 -23.66 -89 -24 C-58.04061927 -32.51953475 -24.53965316 -18.41456621 0 0 Z " fill="#665B66" transform="translate(327,41)"/>
<path d="M0 0 C3.95827235 -0.05785647 7.9164367 -0.09354717 11.875 -0.125 C13.00292969 -0.14175781 14.13085938 -0.15851563 15.29296875 -0.17578125 C16.36933594 -0.18222656 17.44570313 -0.18867188 18.5546875 -0.1953125 C19.54968262 -0.20578613 20.54467773 -0.21625977 21.56982422 -0.22705078 C24 0 24 0 26 2 C26.01734012 4.59298438 25.91565035 7.05302122 25.70654297 9.62963867 C25.62589002 10.77225426 25.62589002 10.77225426 25.54360771 11.937953 C25.37393558 14.2930029 25.18878271 16.64641221 25 19 C24.89678044 20.3402163 24.79360799 21.68043623 24.69049072 23.0206604 C24.37420129 26.99042896 24.03771916 30.95820747 23.6953125 34.92578125 C23.57003066 36.39712853 23.44495473 37.86849336 23.32006836 39.33987427 C23.05824553 42.41995966 22.79511174 45.49992872 22.53082275 48.57980347 C22.12109742 53.35453332 21.71431812 58.12951119 21.30810547 62.90454102 C20.90636638 67.62570322 20.50451332 72.34685531 20.10159302 77.06791687 C19.09558874 88.8566358 18.10326302 100.64644435 17.125 112.4375 C17.00407594 113.8929856 16.88314527 115.34847065 16.76220703 116.80395508 C16.50772811 119.86926938 16.25377811 122.9346276 16 126 C7.75 126 -0.5 126 -9 126 C-9 119.87138093 -8.95718366 113.93481006 -8.484375 107.85546875 C-8.42867844 107.10440857 -8.37298187 106.35334839 -8.31559753 105.57952881 C-8.13122874 103.11518445 -7.94086759 100.65134892 -7.75 98.1875 C-7.68475128 97.32762482 -7.61950256 96.46774963 -7.55227661 95.58181763 C-6.4004535 80.40320977 -5.05913356 65.24387389 -3.67749023 50.0847168 C-2.16079682 33.40396446 -0.94237009 16.72323832 0 0 Z " fill="#E4E0E4" transform="translate(357,320)"/>
<path d="M0 0 C19.8193667 1.80176061 35.2063658 13.70336171 47.75 28.3125 C57.8586176 41.19460113 65.31244375 56.68355662 69.42578125 72.51171875 C69.63734863 73.32248871 69.84891602 74.13325867 70.06689453 74.96859741 C72.75235273 85.57993577 74.59597016 96.35218052 76.5 107.125 C77.27646231 111.45635927 78.05799746 115.78679727 78.83984375 120.1171875 C79.02735703 121.15955566 79.2148703 122.20192383 79.4080658 123.27587891 C81.03144253 132.26608824 82.78461148 141.22350202 84.6796875 150.16064453 C84.85886719 151.02028809 85.03804688 151.87993164 85.22265625 152.765625 C85.37484619 153.47493164 85.52703613 154.18423828 85.68383789 154.91503906 C86 157 86 157 86 162 C82.04 162 78.08 162 74 162 C70.94006503 151.12138569 68.45380231 140.1748408 66.13757324 129.11691284 C65.16082133 124.45982149 64.16830207 119.80609582 63.17578125 115.15234375 C62.98414398 114.25324783 62.79250671 113.35415192 62.59506226 112.42781067 C59.6066622 98.44049008 56.35869082 84.59437283 52.171875 70.9140625 C51.40963778 68.41534594 50.72679362 65.93264287 50.078125 63.3984375 C45.25004285 44.63667966 35.00366169 25.56716652 18.08203125 15.21484375 C11.62318896 11.81413377 5.11172195 9.5959376 -2 8 C-1.125 2.25 -1.125 2.25 0 0 Z " fill="#665C66" transform="translate(375,284)"/>
<path d="M0 0 C2.35317996 0.97707227 4.72045544 1.91992046 7.08618164 2.86621094 C7.08618164 9.13621094 7.08618164 15.40621094 7.08618164 21.86621094 C2.13618164 21.86621094 -2.81381836 21.86621094 -7.91381836 21.86621094 C-8.04402669 19.35970052 -8.17423503 16.8531901 -8.30444336 14.34667969 C-8.71115648 11.81018586 -8.71115648 11.81018586 -10.46459961 10.22558594 C-16.79218568 6.71362429 -23.9902717 4.8605659 -30.91381836 2.86621094 C-31.67275391 2.64723145 -32.43168945 2.42825195 -33.21362305 2.20263672 C-57.16654893 -4.31724804 -87.49263301 -3.6378784 -111.41381836 2.49121094 C-112.96770264 2.88445557 -112.96770264 2.88445557 -114.55297852 3.28564453 C-124.27128374 5.82299483 -133.59526614 9.14298654 -142.91381836 12.86621094 C-144.03401367 13.30578125 -145.15420898 13.74535156 -146.30834961 14.19824219 C-148.51632844 15.07216947 -150.71655093 15.9656915 -152.91381836 16.86621094 C-152.91381836 12.57621094 -152.91381836 8.28621094 -152.91381836 3.86621094 C-103.7085821 -22.3339798 -50.6790612 -21.21421326 0 0 Z " fill="#665B66" transform="translate(330.913818359375,127.1337890625)"/>
<path d="M0 0 C21.79034117 13.3163196 32.65134246 35.93966093 38.75 59.953125 C40.7551706 69.03209187 40.59997501 75.12637875 36 83.1875 C35.56574707 83.98357666 35.13149414 84.77965332 34.68408203 85.59985352 C32.5200792 89.54965876 30.30078457 93.4677601 28.08496094 97.38867188 C15.80461304 119.1234874 4.52667375 139.73326247 2 165 C-12.85 165 -27.7 165 -43 165 C-43 164.67 -43 164.34 -43 164 C-33.43 164 -23.86 164 -14 164 C-13.34 159.38 -12.68 154.76 -12 150 C-5.72165743 128.86291333 5.7127211 109.40743909 16.63330078 90.38769531 C18.40152799 87.29850952 20.13917053 84.20442215 21.8125 81.0625 C22.25207031 80.24910156 22.69164062 79.43570313 23.14453125 78.59765625 C29.57909874 59.05890109 15.00342084 29.01079715 6.62109375 11.921875 C4.74928298 8.24235191 2.68243002 5.15580002 0 2 C0 1.34 0 0.68 0 0 Z " fill="#9DA7B4" transform="translate(354,140)"/>
<path d="M0 0 C2.145 1.0725 4.29 2.145 6.5 3.25 C24.26761892 11.7134833 41.24721578 13.10209645 60 7 C64.07444418 5.48002361 68.0361525 3.78464191 72 2 C73.65 1.34 75.3 0.68 77 0 C77 10.89 77 21.78 77 33 C51.59 33 26.18 33 0 33 C0 22.11 0 11.22 0 0 Z " fill="#ECA56B" transform="translate(219,272)"/>
<path d="M0 0 C4.92170412 2.90488439 8.81003784 6.80757568 11.375 11.9375 C11.77985139 17.20056808 11.2941765 20.51165175 8.375 24.9375 C2.31247104 31.2143608 -4.10373581 34.50445967 -12.8125 35.1875 C-21.33680519 34.62852917 -28.46553188 31.96402996 -34.625 25.9375 C-37.53527497 21.84492582 -38.23021108 18.10835794 -38.03125 13.17578125 C-37.15787698 8.36383184 -34.45200325 5.30952968 -30.6171875 2.4296875 C-21.80653502 -3.25984824 -9.70634417 -4.51974805 0 0 Z " fill="#E4A35F" transform="translate(270.625,367.0625)"/>
<path d="M0 0 C27.66809297 -0.09340385 55.33616235 -0.16395991 83.00438118 -0.20724869 C95.85095614 -0.22788184 108.69743319 -0.25601699 121.54394531 -0.30175781 C132.73978073 -0.34160232 143.93554524 -0.36742733 155.13144958 -0.37635398 C161.06068502 -0.38157273 166.98971761 -0.39385464 172.91888809 -0.42292023 C178.49861651 -0.45005143 184.07805833 -0.45844954 189.65784645 -0.45243073 C191.70651494 -0.45353198 193.75519292 -0.46149936 195.8038044 -0.4768219 C198.60027874 -0.49671368 201.39566996 -0.49194199 204.19216919 -0.48101807 C205.00346413 -0.49266943 205.81475907 -0.5043208 206.6506387 -0.51632524 C212.90510436 -0.45025394 216.52200305 1.52200305 221 6 C221.25878906 8.27490234 221.25878906 8.27490234 221.265625 11.0859375 C221.26820313 12.09914063 221.27078125 13.11234375 221.2734375 14.15625 C221.26570312 15.2184375 221.25796875 16.280625 221.25 17.375 C221.25773438 18.42945313 221.26546875 19.48390625 221.2734375 20.5703125 C221.27085937 21.58609375 221.26828125 22.601875 221.265625 23.6484375 C221.26336914 24.57833496 221.26111328 25.50823242 221.25878906 26.46630859 C220.97301056 29.26424189 220.66495055 30.72879679 219 33 C214.61397089 35.82152227 211.22991983 36.36145911 206.0703125 36.29296875 C204.78125 36.28330078 203.4921875 36.27363281 202.1640625 36.26367188 C200.81770214 36.23861188 199.47134797 36.21321712 198.125 36.1875 C196.75522295 36.17243504 195.38542998 36.15874982 194.015625 36.14648438 C190.67667642 36.11121379 187.33854325 36.06191896 184 36 C184.48855469 35.07445312 184.97710937 34.14890625 185.48046875 33.1953125 C187.62319726 28.18342133 187.40188182 23.24505982 187.3125 17.875 C187.31572266 16.89917969 187.31894531 15.92335938 187.32226562 14.91796875 C187.28378703 9.78982209 186.97012217 6.92530543 185 2 C123.95 1.67 62.9 1.34 0 1 C0 0.67 0 0.34 0 0 Z " fill="#D57F27" transform="translate(272,461)"/>
<path d="M0 0 C0 6.27 0 12.54 0 19 C-23.76 19 -47.52 19 -72 19 C-72 13.39 -72 7.78 -72 2 C-69.0609375 2.928125 -69.0609375 2.928125 -66.0625 3.875 C-63.70943345 4.58697936 -61.35533203 5.29555138 -59 6 C-58.26265625 6.23460937 -57.5253125 6.46921875 -56.765625 6.7109375 C-40.24199934 11.27145818 -22.73865837 7.04260028 -7.33203125 0.734375 C-5 0 -5 0 0 0 Z " fill="#FDD0A2" transform="translate(291,285)"/>
<path d="M0 0 C52.8 0 105.6 0 160 0 C160 28 160 28 158 37 C153.27613717 39.95241427 147.40830811 39.14617049 142 39 C142.66 35.37 143.32 31.74 144 28 C144.33 19.09 144.66 10.18 145 1 C97.48 1 49.96 1 1 1 C1 10.24 1 19.48 1 29 C0.67 29 0.34 29 0 29 C0 19.43 0 9.86 0 0 Z " fill="#E1A16C" transform="translate(178,164)"/>
<path d="M0 0 C-7.58629348 21.09819928 -29.54275518 36.80241593 -49 46 C-55.67623301 48.92297004 -61.72736992 50.52310622 -69 51 C-66.21495868 48.770595 -63.3066808 47.00746794 -60.1784668 45.29882812 C-53.1941 41.47903093 -47.04014956 37.21555576 -41 32 C-40.26523437 31.40960938 -39.53046875 30.81921875 -38.7734375 30.2109375 C-30.3127926 23.18531364 -23.33899991 14.23930492 -17.9375 4.6875 C-16.28008685 2.08574681 -15.5598805 1.1781438 -12.59375 0.234375 C-8.39796213 -0.234566 -4.2166543 0.00751632 0 0 Z " fill="#665B66" transform="translate(328,218)"/>
<path d="M0 0 C2.02182313 3.07317115 2.09005517 4.75747881 1.5625 8.375 C-0.11546384 11.53778077 -1.28033474 12.31327692 -4.66015625 13.640625 C-21.04641531 17.84137503 -21.04641531 17.84137503 -26.4375 16.375 C-28.93622358 13.7637213 -29.41485897 12.53348718 -29.9375 8.875 C-29.4375 5.375 -29.4375 5.375 -27.3671875 3.265625 C-23.91161648 1.03562983 -21.09980119 0.36203267 -17.0625 -0.375 C-15.79664063 -0.61734375 -14.53078125 -0.8596875 -13.2265625 -1.109375 C-3.62414384 -2.41609589 -3.62414384 -2.41609589 0 0 Z " fill="#050403" transform="translate(314.4375,174.625)"/>
<path d="M0 0 C11.89181 2.83310412 11.89181 2.83310412 15.28515625 7.234375 C15.88540102 10.83584365 15.74078107 12.51296904 13.78515625 15.609375 C7.47258411 19.71254689 -1.36407801 16.54929184 -8.32421875 15.28125 C-11.94194302 14.16425679 -13.4651437 13.24139982 -15.71484375 10.234375 C-16.27286472 6.32822818 -16.29877193 4.18325829 -14.21484375 0.796875 C-9.45131636 -2.18032962 -5.23633972 -1.07920356 0 0 Z " fill="#050403" transform="translate(216.71484375,173.765625)"/>
<path d="M0 0 C7.613387 0.19385939 13.15243427 2.10469772 18.57421875 7.59375 C22.55782342 12.25080074 23.4088281 14.86757853 23 21 C20.68857333 27.66234745 15.79767558 31.37734816 9.875 34.8125 C4.8088935 36.90502225 0.46848131 37.10722512 -5 37 C-5 36.67 -5 36.34 -5 36 C-3.4221875 35.7525 -3.4221875 35.7525 -1.8125 35.5 C1.67549055 34.53072068 2.97009954 33.10698901 4.875 30.0625 C8.06421841 24.41272566 8.69443443 19.41162751 8 13 C6.3310257 8.00172463 3.45731758 3.95122009 0 0 Z " fill="#DB8023" transform="translate(259,365)"/>
</svg>
