
<svg version="1.1" xmlns="http://www.w3.org/2000/svg" width="410" height="550">
<path d="M0 0 C1.2267949 -0.00843994 2.45358979 -0.01687988 3.71756029 -0.02557558 C5.08618569 -0.01977981 6.45480991 -0.01369875 7.82343292 -0.00736332 C9.27169315 -0.01153362 10.71995011 -0.01700946 12.16820097 -0.02368313 C16.15764815 -0.03819636 20.14688977 -0.03387483 24.13634849 -0.02651632 C28.43498179 -0.02180144 32.73356954 -0.0342795 37.03218842 -0.04453373 C45.45702347 -0.06175976 53.88178406 -0.06255394 62.30663216 -0.05732083 C69.15150913 -0.05328521 75.99636402 -0.05471542 82.84123993 -0.06006908 C84.30055866 -0.06119172 84.30055866 -0.06119172 85.78935859 -0.06233703 C87.7655238 -0.06386845 89.741689 -0.06540679 91.7178542 -0.066952 C110.26386476 -0.08069062 128.80983317 -0.07522963 147.35584277 -0.06376678 C164.33799899 -0.05383133 181.3200463 -0.06677806 198.30218571 -0.09070098 C215.72370772 -0.1150587 233.14517893 -0.12470816 250.56671762 -0.11804825 C260.35393598 -0.11454882 270.14107053 -0.1168357 279.92827606 -0.13429928 C288.25928981 -0.14897967 296.59016073 -0.14971141 304.92117155 -0.13222837 C309.17471324 -0.12368177 313.42799934 -0.12165737 317.68152809 -0.13687992 C321.57132269 -0.15062886 325.46064039 -0.14609178 329.35040671 -0.12664068 C330.76153055 -0.12285001 332.17269172 -0.12588998 333.58378261 -0.13625234 C335.49417761 -0.14928956 337.40470038 -0.13553744 339.31507874 -0.12025452 C340.9103127 -0.12009351 340.9103127 -0.12009351 342.53777361 -0.11992925 C345.15753937 0.38031673 345.15753937 0.38031673 346.99962169 2.16219729 C348.21306698 4.48668602 348.53103655 5.77599803 348.52668285 8.37079906 C348.532656 9.15904387 348.53862914 9.94728867 348.54478329 10.75941968 C348.53604477 11.61934073 348.52730625 12.47926178 348.51830292 13.36524105 C348.52086619 14.28337448 348.52342947 15.20150791 348.52607042 16.14746356 C348.53102056 19.23079254 348.51449492 22.31363426 348.49811554 25.3969183 C348.49726953 27.60437668 348.49774389 29.8118359 348.49944305 32.01929379 C348.50030546 38.0189392 348.4826398 44.01840548 348.46172118 50.01800919 C348.4429954 56.28539598 348.44120718 62.55278666 348.43764496 68.82019711 C348.42937345 79.34189406 348.41062178 89.86353549 348.38385773 100.38519955 C348.35631962 111.22243578 348.33508483 122.05965414 348.32233429 132.8969183 C348.32154612 133.56495441 348.32075795 134.23299053 348.31994589 134.92127016 C348.31603077 138.27261947 348.31223965 141.62396891 348.30851018 144.97531843 C348.27713383 172.7770304 348.22434985 200.57866894 348.15753937 228.38031673 C349.29699005 228.36291439 350.43644073 228.34551205 351.61042023 228.32758236 C353.13523747 228.31350171 354.66005874 228.2998529 356.18488312 228.28656673 C356.93233795 228.27399837 357.67979279 228.26143002 358.44989777 228.2484808 C375.25709744 228.13907673 392.73431262 235.82785723 404.68878937 247.54828548 C412.30737439 256.28795976 419.94897504 267.47782397 420.59503937 279.38031673 C420.15753937 282.38031673 420.15753937 282.38031673 419.09503937 284.31781673 C414.76990227 286.68966611 409.86692161 285.42538305 405.34308624 284.18353939 C403.51878259 283.64399641 401.69660411 283.09723066 399.87628937 282.54437923 C397.88067363 281.96850143 395.88456378 281.39433361 393.88800812 280.82172298 C390.7621559 279.91631391 387.64108998 279.00032111 384.52716827 278.05463314 C381.50639067 277.14254767 378.47521878 276.27767972 375.43878937 275.41937923 C374.51255768 275.12592617 373.58632599 274.83247311 372.63202667 274.53012753 C367.75795335 273.10734548 367.75795335 273.10734548 363.08148956 274.49185848 C361.27953274 276.02255076 359.73362114 277.62101449 358.15753937 279.38031673 C357.05350236 280.36878657 355.94023734 281.34715155 354.81378937 282.31000423 C353.75929131 283.28918101 352.70718873 284.27094408 351.65753937 285.25531673 C351.10839874 285.73355892 350.55925812 286.21180111 349.99347687 286.70453548 C348.17282523 288.34504355 348.17282523 288.34504355 346.15753937 291.38031673 C346.21934329 294.37162639 346.52021715 296.5271434 347.15753937 299.38031673 C347.31656999 300.95505123 347.46734059 302.53063757 347.61066437 304.10687923 C348.32411266 309.20506182 349.23411322 314.05581627 352.15753937 318.38031673 C357.20831394 322.04415401 363.80575168 322.67468797 369.81232452 323.7274847 C375.58399452 324.85384914 381.22054999 326.48829466 386.87702179 328.0816412 C388.8256516 328.6249115 390.77853252 329.14900413 392.73371124 329.66815853 C393.92931671 329.99082699 395.12492218 330.31349545 396.35675812 330.64594173 C397.42756622 330.93243587 398.49837433 331.21893002 399.60163116 331.5141058 C402.15753937 332.38031673 402.15753937 332.38031673 404.15753937 334.38031673 C404.97003937 336.69281673 404.97003937 336.69281673 405.15753937 339.38031673 C400.86599211 348.23520925 390.0426312 353.8861795 381.15753937 357.38031673 C361.62311321 363.89179212 342.89743243 363.8618763 324.14972687 354.95062923 C317.80994244 351.69506426 312.03271912 347.98112883 306.22003937 343.88031673 C289.1536089 331.9024073 273.71293982 327.94641836 253.04425812 327.86859798 C251.3364664 327.85171276 249.62868682 327.8335575 247.92092133 327.8142004 C243.47086127 327.76711082 239.02085041 327.73703798 234.57062531 327.71076107 C230.0116072 327.68074604 225.45275808 327.63428885 220.89386749 327.58930111 C211.98184728 327.50373627 203.06979183 327.43618526 194.15753937 327.38031673 C194.16624054 328.05361019 194.17494171 328.72690365 194.18390656 329.42059994 C194.19405792 330.75610897 194.19405792 330.75610897 194.20441437 332.11859798 C194.21746613 333.43791317 194.21746613 333.43791317 194.23078156 334.78388119 C194.02163865 342.19799701 191.47653884 348.81792396 186.39972687 354.26703548 C179.03733193 361.15304016 172.46851605 363.07355305 162.40363312 362.78266048 C153.92126792 361.73129633 148.09298889 357.26643867 142.78644562 350.75922298 C137.5727572 343.14498739 138.15753937 336.92350968 138.15753937 327.38031673 C107.79753937 327.38031673 77.43753937 327.38031673 46.15753937 327.38031673 C46.15753937 332.33031673 46.15753937 337.28031673 46.15753937 342.38031673 C43.14573091 350.66278998 38.9059127 355.9557539 31.32160187 360.47406673 C24.69352752 363.49445505 16.42613656 363.60260227 9.49738312 361.61859798 C0.86538663 357.9726963 -3.64768222 352.66367663 -7.84246063 344.38031673 C-9.02958139 340.79670858 -8.94248894 337.3831476 -8.90496063 333.63031673 C-8.89593719 332.45984798 -8.88691376 331.28937923 -8.87761688 330.08344173 C-8.86601532 329.19141048 -8.85441376 328.29937923 -8.84246063 327.38031673 C-9.63418671 327.40650082 -10.42591278 327.4326849 -11.24163055 327.45966244 C-14.83753781 327.56375796 -18.43312794 327.62868574 -22.02996063 327.69281673 C-23.27583954 327.73471127 -24.52171844 327.7766058 -25.80535126 327.81976986 C-34.95139894 327.94237103 -34.95139894 327.94237103 -39.14324188 325.29828548 C-43.26583236 318.21880252 -42.0286181 308.96738135 -42.02776337 300.98505306 C-42.0299382 298.7162227 -42.04810016 296.44788876 -42.06707001 294.17914486 C-42.15286163 272.48455155 -42.15286163 272.48455155 -37.84246063 265.38031673 C-35.076285 263.99722892 -32.83228064 264.26821477 -29.74089813 264.28266048 C-28.52917938 264.28588314 -27.31746063 264.2891058 -26.06902313 264.29242611 C-24.16249969 264.30499447 -24.16249969 264.30499447 -22.21746063 264.31781673 C-20.93871063 264.32232845 -19.65996063 264.32684017 -18.34246063 264.33148861 C-15.17574771 264.3433047 -12.00912708 264.35977859 -8.84246063 264.38031673 C-8.84359979 263.82918781 -8.84473895 263.27805889 -8.84591264 262.7102291 C-8.91300205 230.06814486 -8.96449761 197.42607787 -8.99565662 164.78394018 C-8.99940888 160.86725373 -9.00329183 156.95056742 -9.00725555 153.03388119 C-9.00804249 152.25411766 -9.00882942 151.47435414 -9.00964019 150.67096142 C-9.02270508 138.03414047 -9.04636485 125.39736034 -9.07391902 112.76056363 C-9.10194316 99.80043947 -9.11863054 86.84033674 -9.12472612 73.88018352 C-9.12884879 65.87879075 -9.14188416 57.87751334 -9.16621003 49.87615607 C-9.18389667 43.74755407 -9.18583384 37.61904057 -9.18178368 31.49041653 C-9.18261213 28.97124234 -9.18862059 26.45206396 -9.20007706 23.93291569 C-9.21490768 20.50499663 -9.2114486 17.07757924 -9.20322418 13.64964962 C-9.21196271 12.64285064 -9.22070123 11.63605166 -9.22970456 10.59874362 C-9.22373141 9.68360423 -9.21775827 8.76846484 -9.21160412 7.82559395 C-9.21274328 7.03387706 -9.21388244 6.24216017 -9.21505612 5.42645186 C-8.84246063 3.38031673 -8.84246063 3.38031673 -7.68454295 1.6262567 C-5.06908037 -0.14277898 -3.14593313 0.00304429 0 0 Z " fill="#040302" transform="translate(66.84246063232422,74.61968326568604)"/>
<path d="M0 0 C109.23 0 218.46 0 331 0 C331 58.41 331 116.82 331 177 C323.08 180.96 323.08 180.96 315 185 C311.77245394 186.95608852 308.63108798 188.91071297 305.5 191 C299.70240488 194.74206262 293.88867786 198.34191647 287.75 201.5 C286.61046875 202.0878125 285.4709375 202.675625 284.296875 203.28125 C271.91913843 208.61814673 260.17630795 209.56700742 246.91015625 209.390625 C245.22766298 209.38314139 243.54516084 209.37745852 241.86265564 209.37347412 C237.48795431 209.35838418 233.11380558 209.31925175 228.73931885 209.2746582 C224.25402293 209.23334075 219.76863552 209.21538618 215.28320312 209.1953125 C206.52188511 209.15273652 197.76101177 209.08469431 189 209 C188.97812622 207.61832642 188.97812622 207.61832642 188.95581055 206.20874023 C188.89389598 202.71373973 188.81960197 199.21941826 188.73754883 195.72485352 C188.70477268 194.22690363 188.67660243 192.72884419 188.65356445 191.23071289 C188.28986911 168.17861848 182.90520731 148.48148362 166.8125 131.25 C153.87744184 119.07451348 137.54887776 112.19834754 120 110 C120.66 109.38125 121.32 108.7625 122 108.125 C134.69231471 95.28845444 140.43653694 81.95582512 140.36352539 63.98876953 C140.09715032 50.3858824 134.97101105 39.17165339 125.6875 29.1875 C113.72048086 18.04671158 98.63269181 14.35774903 82.71875 14.6640625 C69.14386222 15.32745564 57.99450945 22.59713394 48.75 32.125 C39.03164687 43.66304477 34.9286997 57.06981488 36 72 C38.00387816 86.24605816 43.9257853 96.88740734 54 107 C54.58394531 107.58652344 55.16789062 108.17304688 55.76953125 108.77734375 C56.37861328 109.38255859 56.37861328 109.38255859 57 110 C55.83984375 110.23074219 54.6796875 110.46148437 53.484375 110.69921875 C33.04960436 114.90108831 18.34148071 122.80935267 4 138 C2.02 139.98 2.02 139.98 0 142 C0 95.14 0 48.28 0 0 Z " fill="#FAB03A" transform="translate(71,131)"/>
<path d="M0 0 C1.51633271 -0.00899853 3.0326647 -0.01812077 4.54899597 -0.02735901 C7.70985041 -0.04373075 10.87060042 -0.05152755 14.03149414 -0.05444336 C18.03880919 -0.05982122 22.04511359 -0.09752709 26.05214405 -0.14318752 C29.17957461 -0.17324039 32.30676965 -0.18017292 35.43433189 -0.18116951 C36.90963059 -0.1853145 38.3849339 -0.19751153 39.86008644 -0.21868706 C58.14588684 -0.46036949 74.34407105 5.41869644 87.82910156 17.99072266 C97.63983243 27.61092255 105.90467561 42.4062595 106.27001953 56.40039062 C106.26970934 57.79691504 106.25880202 59.19347008 106.23828125 60.58984375 C106.23545135 61.3331897 106.23262146 62.07653564 106.22970581 62.84240723 C106.21863032 65.18547592 106.19355103 67.52814322 106.16796875 69.87109375 C106.15792256 71.47265068 106.1487996 73.07421368 106.140625 74.67578125 C106.12044533 78.57449276 106.08127517 82.47235111 106.04296875 86.37109375 C96.14296875 86.37109375 86.24296875 86.37109375 76.04296875 86.37109375 C75.99398437 84.02371094 75.945 81.67632812 75.89453125 79.2578125 C75.84051915 76.98406608 75.78321265 74.71042492 75.72558594 72.43676758 C75.68730654 70.85676924 75.65245178 69.27668406 75.62109375 67.6965332 C75.57541999 65.4249773 75.51743091 63.15401866 75.45703125 60.8828125 C75.43970444 59.82328621 75.43970444 59.82328621 75.42202759 58.74235535 C75.31225827 55.09367982 75.12154511 53.48895829 73.04296875 50.37109375 C69.54296875 49.87109375 69.54296875 49.87109375 66.04296875 50.37109375 C59.36349387 60.39030606 63.40769813 74.33502411 63.04296875 86.37109375 C32.68296875 86.37109375 2.32296875 86.37109375 -28.95703125 86.37109375 C-29.28703125 75.15109375 -29.61703125 63.93109375 -29.95703125 52.37109375 C-31.84203396 50.05546288 -31.84203396 50.05546288 -34.95703125 50.12109375 C-38.07202854 50.05546288 -38.07202854 50.05546288 -39.95703125 52.37109375 C-40.28900873 54.95937803 -40.28900873 54.95937803 -40.27587891 58.01416016 C-40.2957486 59.19523346 -40.31561829 60.37630676 -40.33609009 61.59317017 C-40.3534169 63.51351578 -40.3534169 63.51351578 -40.37109375 65.47265625 C-40.3904599 66.77939301 -40.40982605 68.08612976 -40.42977905 69.4324646 C-40.48117295 72.90776484 -40.52075947 76.38310387 -40.55792236 79.85858154 C-40.59791678 83.40451676 -40.64892221 86.95029216 -40.69921875 90.49609375 C-40.79710771 97.45436703 -40.87656071 104.41250969 -40.95703125 111.37109375 C-50.85703125 111.37109375 -60.75703125 111.37109375 -70.95703125 111.37109375 C-71.04131057 103.77893145 -71.12139858 96.18849943 -71.16403198 88.59627533 C-71.18500674 85.05950047 -71.21295238 81.52311971 -71.25878906 77.98657227 C-71.31124689 73.91288816 -71.33009994 69.83961025 -71.34765625 65.765625 C-71.37862396 63.89762993 -71.37862396 63.89762993 -71.41021729 61.99189758 C-71.4143675 45.50413126 -65.127546 30.50419794 -53.95703125 18.37109375 C-48.63034538 13.17288082 -42.64384708 9.41567559 -36.08203125 5.99609375 C-35.4588501 5.662146 -34.83566895 5.32819824 -34.19360352 4.98413086 C-23.59745761 -0.26331711 -11.56410346 0.03606018 0 0 Z " fill="#69BCC7" transform="translate(141.95703125,252.62890625)"/>
<path d="M0 0 C0.96164062 0.4021875 1.92328125 0.804375 2.9140625 1.21875 C13.63255378 6.10312577 22.50069448 13.42613207 28 24 C28 24.66 28 25.32 28 26 C18.89998507 24.40313199 10.08640087 21.86077511 1.21801758 19.30810547 C-0.69289487 18.75968003 -2.6061894 18.21957621 -4.51953125 17.6796875 C-6.20719604 17.19604736 -6.20719604 17.19604736 -7.92895508 16.70263672 C-10.78036572 16.05025101 -13.09377974 15.75093185 -16 16 C-19.10679382 18.04978314 -21.64595195 20.73382381 -24.29833984 23.33789062 C-26.31078233 25.30355898 -28.35404208 27.23534594 -30.39453125 29.171875 C-31.95212341 30.67542492 -33.50810478 32.18064526 -35.0625 33.6875 C-35.82530273 34.41187256 -36.58810547 35.13624512 -37.37402344 35.88256836 C-38.08719727 36.58518799 -38.80037109 37.28780762 -39.53515625 38.01171875 C-40.50014038 38.94697388 -40.50014038 38.94697388 -41.48461914 39.90112305 C-43.46492588 42.64394518 -43.78278609 44.63754983 -44 48 C-43.56854054 50.82186615 -43.56854054 50.82186615 -42.671875 53.6328125 C-42.36636719 54.68726563 -42.06085938 55.74171875 -41.74609375 56.828125 C-41.41738281 57.91609375 -41.08867187 59.0040625 -40.75 60.125 C-40.11809983 62.2729405 -39.48788621 64.42137791 -38.859375 66.5703125 C-38.54935547 67.62379883 -38.23933594 68.67728516 -37.91992188 69.76269531 C-36.48560537 74.8102104 -35.23122956 79.89968314 -34 85 C-33.01644531 85.21914063 -32.03289062 85.43828125 -31.01953125 85.6640625 C-22.50998228 87.59479177 -14.08208797 89.74159542 -5.6875 92.125 C-4.78684814 92.37846191 -3.88619629 92.63192383 -2.95825195 92.89306641 C-2.109646 93.13718262 -1.26104004 93.38129883 -0.38671875 93.6328125 C0.36391846 93.84824707 1.11455566 94.06368164 1.88793945 94.28564453 C4.04523091 95.01529831 5.98986263 95.93478928 8 97 C-5.45561858 104.38453688 -19.21872322 107.36964317 -34.4375 104.30859375 C-44.52501623 101.16937972 -53.13099557 95.66470376 -61.6875 89.625 C-81.85161569 75.42936613 -101.27712773 70.76204255 -125.67578125 70.5859375 C-127.33872896 70.56718078 -129.00166761 70.5476042 -130.66459656 70.5272522 C-134.99627279 70.47639991 -139.32797972 70.43652645 -143.65979004 70.39910889 C-148.09813739 70.35877141 -152.53636226 70.30781639 -156.97460938 70.2578125 C-165.64965522 70.16161029 -174.32476282 70.07703136 -183 70 C-183.11972168 69.26177002 -183.23944336 68.52354004 -183.36279297 67.76293945 C-183.52924316 66.78542725 -183.69569336 65.80791504 -183.8671875 64.80078125 C-184.02815918 63.83567627 -184.18913086 62.87057129 -184.35498047 61.8762207 C-186.02516938 54.4286448 -189.78575759 49.54475622 -195.9375 45.19140625 C-203.1299587 41.03667159 -210.77699872 40.85859723 -218.82421875 42.6171875 C-225.90285909 45.06706915 -230.5811002 49.39427197 -234.05859375 56.015625 C-236.0187108 60.77992865 -236.32860423 64.62883387 -237 70 C-267.69 70 -298.38 70 -330 70 C-330 57.79 -330 45.58 -330 33 C-325.84599861 32.98786972 -325.84599861 32.98786972 -321.608078 32.97549438 C-295.519733 32.89837826 -269.43144066 32.81041465 -243.3431654 32.71247292 C-240.67156674 32.70249498 -237.99996803 32.69253301 -235.32836914 32.68261719 C-234.33233662 32.6789182 -234.33233662 32.6789182 -233.31618223 32.67514448 C-223.24603787 32.63793716 -213.1758858 32.60646917 -203.10571289 32.578125 C-191.4135497 32.54515413 -179.72143361 32.50529471 -168.02932245 32.45720994 C-161.84012424 32.43199568 -155.65095708 32.41019939 -149.46172142 32.39665604 C-143.63166118 32.3837897 -137.80170766 32.36168603 -131.97170639 32.33261681 C-129.83647506 32.32357674 -127.70122656 32.31785917 -125.5659771 32.31578636 C-97.8941695 32.28412353 -78.47936763 23.91217556 -55.3125 9.3125 C-38.6898976 -1.15209591 -19.29837215 -8.4630735 0 0 Z " fill="#E4E4E4" transform="translate(443,319)"/>
<path d="M0 0 C109.89 0 219.78 0 333 0 C333 10.56 333 21.12 333 32 C223.11 32 113.22 32 0 32 C0 21.44 0 10.88 0 0 Z " fill="#C75758" transform="translate(70,87)"/>
<path d="M0 0 C1.07121094 0.62261719 1.07121094 0.62261719 2.1640625 1.2578125 C3.32808594 1.91136719 3.32808594 1.91136719 4.515625 2.578125 C13.95449244 8.35509069 20.25476247 16.58550415 23.77734375 27.0859375 C25.88982904 38.94999629 24.44858433 51.48674491 17.4765625 61.5078125 C11.51757966 68.69452547 5.05733062 74.22420219 -3.8359375 77.2578125 C-4.48175781 77.48210937 -5.12757813 77.70640625 -5.79296875 77.9375 C-15.81300257 80.91698052 -25.41949368 79.53229968 -34.8359375 75.2578125 C-44.29599667 69.86731334 -50.5408239 63.21466676 -54.8359375 53.2578125 C-55.19042969 52.55785156 -55.54492188 51.85789063 -55.91015625 51.13671875 C-59.06882367 41.31419603 -58.27110278 28.76936049 -53.8984375 19.5078125 C-43.19525535 1.44084103 -20.24390621 -9.94803639 0 0 Z " fill="#F8CFA0" transform="translate(175.8359375,159.7421875)"/>
<path d="M0 0 C4.94896857 2.33951241 7.32640654 5.28571123 10 10 C10.50170898 13.43164062 10.50170898 13.43164062 10.49609375 17.15625 C10.49754898 17.82160767 10.49900421 18.48696533 10.50050354 19.17248535 C10.49885298 20.57092698 10.48738654 21.96938838 10.46655273 23.36767578 C10.43757345 25.49460896 10.44596365 27.61904737 10.45898438 29.74609375 C10.42398482 37.4093665 10.24238802 43.10913438 5.125 49.25 C1.75004386 52.02937564 -0.99374437 52.86709831 -5.3125 53.4375 C-10.04373158 52.87616744 -13.50830887 51.26397214 -17 48 C-20.88705137 41.5267838 -20.55828474 35.13744723 -20.5559082 27.83276367 C-20.56247522 25.57103402 -20.61702762 23.31368961 -20.67382812 21.05273438 C-20.81483184 8.9687331 -20.81483184 8.9687331 -17.15234375 4.58984375 C-11.75304247 -0.39212023 -7.1417496 -0.81853864 0 0 Z " fill="#F7CEA0" transform="translate(238,372)"/>
<path d="M0 0 C10.23 0 20.46 0 31 0 C31.06903882 5.16001225 31.12872035 10.31840876 31.16479492 15.47851562 C31.17983995 17.23215173 31.20028104 18.98575047 31.22631836 20.73925781 C31.26289121 23.26637009 31.2797692 25.79298296 31.29296875 28.3203125 C31.30845261 29.09867462 31.32393646 29.87703674 31.33988953 30.6789856 C31.34157997 36.20193829 30.35653786 40.4163999 26.5 44.64453125 C21.58200427 48.47390814 18.24701186 49.61446018 12 49 C6.24185197 46.70103791 3.51607996 43.73722019 0.85050964 38.25170898 C-0.52830866 34.60131233 -0.49744698 31.20455682 -0.390625 27.34375 C-0.38496521 26.55601196 -0.37930542 25.76827393 -0.37347412 24.95666504 C-0.35129902 22.47045966 -0.30114337 19.98576072 -0.25 17.5 C-0.22991039 15.80210433 -0.21166396 14.10418579 -0.1953125 12.40625 C-0.15491751 8.26980325 -0.07660302 4.1365632 0 0 Z " fill="#F3CB9D" transform="translate(70,376)"/>
<path d="M0 0 C2.6875 0.984375 2.6875 0.984375 4.6875 3.984375 C4.59213303 7.73380256 4.18163458 9.45315714 1.60546875 12.22265625 C0.70441406 12.90714844 -0.19664062 13.59164062 -1.125 14.296875 C-2.10726562 15.05484375 -3.08953125 15.8128125 -4.1015625 16.59375 C-5.17120852 17.39151939 -6.24154248 18.18836708 -7.3125 18.984375 C-8.44600637 19.84283458 -9.57881479 20.70221649 -10.7109375 21.5625 C-13.56384357 23.72257538 -16.43355729 25.85908222 -19.3125 27.984375 C-18.11057785 31.59014144 -16.97140648 32.24513723 -13.9453125 34.453125 C-13.05972656 35.10667969 -12.17414063 35.76023438 -11.26171875 36.43359375 C-10.32972656 37.11035156 -9.39773438 37.78710938 -8.4375 38.484375 C-6.60521668 39.82600505 -4.77442456 41.16967462 -2.9453125 42.515625 C-2.12949707 43.10923828 -1.31368164 43.70285156 -0.47314453 44.31445312 C3.26578761 47.20420407 3.26578761 47.20420407 4.6875 48.984375 C4.5625 52.546875 4.5625 52.546875 3.6875 55.984375 C0.6875 57.984375 0.6875 57.984375 -2.10546875 57.90625 C-6.00859175 56.78428042 -8.5818359 54.80737358 -11.625 52.234375 C-12.84207633 51.23363812 -14.06091105 50.23503696 -15.28125 49.23828125 C-15.92578125 48.70992676 -16.5703125 48.18157227 -17.234375 47.63720703 C-19.4369329 45.88540758 -21.68952739 44.22486862 -23.96875 42.57421875 C-24.74307373 42.00735352 -25.51739746 41.44048828 -26.31518555 40.85644531 C-27.8310802 39.75088849 -29.35580097 38.65731297 -30.88989258 37.57714844 C-34.13977862 35.17688356 -36.01554167 33.69043604 -37.60546875 29.91015625 C-37.18772812 25.73831984 -35.50698143 24.62256151 -32.3125 21.984375 C-31.31476563 21.15679687 -30.31703125 20.32921875 -29.2890625 19.4765625 C-26.30879377 17.12906614 -23.3017364 14.81578264 -20.29003906 12.50878906 C-18.27086849 10.95228276 -16.27257072 9.37118676 -14.2734375 7.7890625 C-12.95407683 6.76960031 -11.63378976 5.75133572 -10.3125 4.734375 C-9.70229004 4.24437012 -9.09208008 3.75436523 -8.46337891 3.24951172 C-5.49144906 1.00156588 -3.77447915 -0.01780415 0 0 Z " fill="#060401" transform="translate(269.3125,170.015625)"/>
<path d="M0 0 C4.84274184 1.43157265 8.07685145 4.26726506 11.9453125 7.4375 C13.53835021 8.71833434 15.132106 9.99827604 16.7265625 11.27734375 C17.5103125 11.9101123 18.2940625 12.54288086 19.1015625 13.19482422 C21.17155592 14.83283057 23.27080648 16.40120997 25.4140625 17.94140625 C26.01532959 18.378479 26.61659668 18.81555176 27.23608398 19.26586914 C28.84242159 20.42570868 30.45802478 21.57268486 32.07421875 22.71875 C34.3828125 25 34.3828125 25 35.53515625 27.96875 C35.3828125 31 35.3828125 31 33.26171875 33.609375 C31.83666016 34.79273438 31.83666016 34.79273438 30.3828125 36 C29.56683594 36.70640625 28.75085938 37.4128125 27.91015625 38.140625 C3.47779215 58.04028807 3.47779215 58.04028807 -1.8671875 57.9375 C-4.6171875 57 -4.6171875 57 -6.6171875 54 C-6.69114024 50.86788383 -6.39431225 48.85897116 -4.24951172 46.48828125 C-2.40680662 44.90302436 -0.51071094 43.44302553 1.4453125 42 C2.124729 41.47889648 2.80414551 40.95779297 3.50415039 40.42089844 C5.4524389 38.93156495 7.41533131 37.46383113 9.3828125 36 C10.29804688 35.30390625 11.21328125 34.6078125 12.15625 33.890625 C13.88698993 32.57851169 15.63252661 31.28592432 17.3828125 30 C15.84896374 25.93116767 13.29400097 24.18518405 9.8203125 21.6875 C8.73948362 20.89336486 7.6587555 20.09909257 6.578125 19.3046875 C4.60310799 17.88016423 2.62021866 16.46640034 0.625 15.0703125 C-5.29212689 10.78943292 -5.29212689 10.78943292 -6.9296875 6.8125 C-6.6171875 4 -6.6171875 4 -5.0546875 1.5625 C-2.6171875 0 -2.6171875 0 0 0 Z " fill="#060401" transform="translate(336.6171875,170)"/>
<path d="M0 0 C0.64750214 -0.00671722 1.29500427 -0.01343445 1.96212769 -0.02035522 C4.10186441 -0.03934795 6.24128775 -0.04325986 8.38110352 -0.04541016 C9.86939117 -0.0518368 11.35767754 -0.05856506 12.84596252 -0.06558228 C15.96553476 -0.0775579 19.08499624 -0.08126277 22.20458984 -0.08007812 C26.20077779 -0.07987482 30.19625549 -0.10718677 34.19227505 -0.14162254 C37.26609048 -0.1638659 40.33973422 -0.16791648 43.4136219 -0.16685867 C44.88682569 -0.16921813 46.36003396 -0.17806117 47.83315849 -0.19352341 C49.89448607 -0.21313503 51.95427226 -0.20736682 54.015625 -0.1953125 C55.18794174 -0.19816254 56.36025848 -0.20101257 57.56809998 -0.20394897 C61.2117766 0.39574013 62.43269684 1.31538615 64.57250977 4.29052734 C64.44750977 7.97802734 64.44750977 7.97802734 63.57250977 11.29052734 C60.71163895 12.72096275 58.25695851 12.43364867 55.05908203 12.45166016 C54.05637772 12.45910751 54.05637772 12.45910751 53.03341675 12.46670532 C50.81857277 12.48132957 48.60380037 12.48812882 46.38891602 12.49365234 C44.85196429 12.49940294 43.31501259 12.50516068 41.77806091 12.51092529 C38.55418564 12.52143558 35.33033531 12.52727827 32.10644531 12.53076172 C27.97239565 12.53625101 23.83867461 12.5602879 19.70472813 12.58873367 C16.52974986 12.60734159 13.35485111 12.61256462 10.17982292 12.6140976 C8.65555967 12.61712811 7.13129795 12.62517009 5.60708809 12.63828278 C3.47624689 12.65530781 1.34621334 12.65347247 -0.78466797 12.64697266 C-1.99775131 12.65061829 -3.21083466 12.65426392 -4.4606781 12.65802002 C-7.42749023 12.29052734 -7.42749023 12.29052734 -9.35047913 10.99090576 C-10.42749023 9.29052734 -10.42749023 9.29052734 -10.30249023 5.72802734 C-8.78709169 -0.22532409 -5.46842694 0.03558543 0 0 Z " fill="#080602" transform="translate(298.427490234375,263.70947265625)"/>
<path d="M0 0 C2 2 2 2 2.01171875 4.91015625 C0.9906407 10.62848801 -2.30695268 15.48493963 -5.1875 20.4375 C-5.80810303 21.52192383 -6.42870605 22.60634766 -7.06811523 23.72363281 C-8.3738805 26.00021688 -9.68494036 28.27377143 -11.00097656 30.54443359 C-12.97329391 33.95383512 -14.92230724 37.37566958 -16.8671875 40.80078125 C-18.09793376 42.95110758 -19.32966868 45.10086841 -20.5625 47.25 C-21.41847778 48.75711548 -21.41847778 48.75711548 -22.29174805 50.29467773 C-27.64909711 59.53703647 -27.64909711 59.53703647 -32 63 C-35.1875 63 -35.1875 63 -38 62 C-40 59 -40 59 -39.81689453 56.17700195 C-38.9380793 52.75918287 -37.69808446 50.21826592 -35.9296875 47.16796875 C-35.28725098 46.05075439 -34.64481445 44.93354004 -33.98291016 43.7824707 C-33.28070352 42.58389506 -32.57805693 41.38557708 -31.875 40.1875 C-31.15751032 38.9510724 -30.44055749 37.71433313 -29.72412109 36.47729492 C-27.86841034 33.2811594 -25.99910651 30.09322841 -24.1237793 26.90856934 C-23.01628256 25.02765347 -21.91130305 23.14527682 -20.80664062 21.26269531 C-18.75661105 17.77299182 -16.69305099 14.29155699 -14.625 10.8125 C-13.98933105 9.73830811 -13.35366211 8.66411621 -12.69873047 7.55737305 C-11.81531982 6.08457886 -11.81531982 6.08457886 -10.9140625 4.58203125 C-10.3979541 3.71811768 -9.8818457 2.8542041 -9.35009766 1.96411133 C-6.69765755 -1.89463744 -4.21831148 -0.96669638 0 0 Z " fill="#050301" transform="translate(321,168)"/>
<path d="M0 0 C0.83265381 0.00523682 1.66530762 0.01047363 2.52319336 0.01586914 C3.33280518 0.0183667 4.14241699 0.02086426 4.9765625 0.0234375 C6.01159912 0.0325415 7.04663574 0.04164551 8.11303711 0.05102539 C11.39241211 0.07165039 14.67178711 0.09227539 18.05053711 0.11352539 C18.05053711 12.65352539 18.05053711 25.19352539 18.05053711 38.11352539 C11.12053711 38.11352539 4.19053711 38.11352539 -2.94946289 38.11352539 C-3.67604945 34.4805926 -4.0773924 31.7655137 -4.08227539 28.16430664 C-4.08356445 27.23295898 -4.08485352 26.30161133 -4.08618164 25.34204102 C-4.08231445 24.37975586 -4.07844727 23.4174707 -4.07446289 22.42602539 C-4.08026367 21.01160156 -4.08026367 21.01160156 -4.08618164 19.56860352 C-4.05960818 0.23640799 -4.05960818 0.23640799 0 0 Z " fill="#DEDEDE" transform="translate(40.949462890625,350.886474609375)"/>
<path d="M0 0 C1.33169472 -0.01418472 1.33169472 -0.01418472 2.69029236 -0.02865601 C3.64658035 -0.02258331 4.60286835 -0.01651062 5.58813477 -0.01025391 C6.57322525 -0.01312408 7.55831573 -0.01599426 8.57325745 -0.01895142 C10.65707982 -0.02099334 12.7409213 -0.01545456 14.82470703 -0.00292969 C18.01386456 0.01310478 21.20175142 -0.00276555 24.39086914 -0.02197266 C26.41496048 -0.01998991 28.43905103 -0.01614559 30.46313477 -0.01025391 C31.41739853 -0.0163266 32.37166229 -0.02239929 33.35484314 -0.02865601 C34.6912661 -0.01447128 34.6912661 -0.01447128 36.0546875 0 C36.83617661 0.00238678 37.61766571 0.00477356 38.4228363 0.00723267 C41.1202624 0.48094866 42.53872207 1.62278236 44.59204102 3.38818359 C44.27954102 6.76318359 44.27954102 6.76318359 43.59204102 10.38818359 C40.46251527 12.47453409 39.73153609 12.64189319 36.16821289 12.6628418 C34.83167664 12.67713982 34.83167664 12.67713982 33.46813965 12.69172668 C32.5087146 12.69081528 31.54928955 12.68990387 30.56079102 12.68896484 C29.57332886 12.69324997 28.5858667 12.6975351 27.56848145 12.70195007 C25.48047655 12.70769372 23.39245165 12.70819339 21.30444336 12.70385742 C18.10439065 12.7006958 14.90526074 12.72416226 11.70532227 12.74951172 C9.67797969 12.75178448 7.65063461 12.75248832 5.62329102 12.75146484 C4.18415344 12.76527946 4.18415344 12.76527946 2.71594238 12.77937317 C1.82491821 12.77314438 0.93389404 12.76691559 0.01586914 12.76049805 C-1.15969543 12.76144218 -1.15969543 12.76144218 -2.35900879 12.7624054 C-4.95583589 12.28811894 -5.83898007 11.48220982 -7.40795898 9.38818359 C-8.05085375 4.24502549 -8.05085375 4.24502549 -6.16001892 1.72494507 C-3.95350567 0.04145135 -2.75658061 0.00842757 0 0 Z " fill="#040301" transform="translate(295.407958984375,299.61181640625)"/>
</svg>
